<svg width="615" height="434" viewBox="0 0 615 434" fill="none" xmlns="http://www.w3.org/2000/svg">
<path d="M291.238 384H28.7538C26.6972 383.996 24.7263 383.177 23.2729 381.724C21.8195 380.271 21.0021 378.302 21 376.248V7.6874C21.0191 5.64473 21.8439 3.69196 23.2955 2.25279C24.7471 0.813625 26.7083 0.00414907 28.7538 4.17982e-06H291.238C292.258 -0.00105376 293.268 0.198728 294.21 0.587914C295.152 0.9771 296.008 1.54805 296.729 2.26807C297.45 2.9881 298.022 3.84306 298.411 4.78402C298.801 5.72498 299.001 6.73346 299 7.75173V376.248C299 378.304 298.182 380.276 296.727 381.73C295.271 383.183 293.297 384 291.238 384ZM28.7538 0.273405C27.7792 0.273405 26.8143 0.465233 25.9141 0.83792C25.0138 1.21061 24.196 1.75684 23.5073 2.4454C22.8186 3.13396 22.2725 3.95134 21.9003 4.8508C21.5281 5.75026 21.3371 6.71416 21.3382 7.6874V376.248C21.3403 378.213 22.122 380.096 23.512 381.486C24.902 382.875 26.7869 383.658 28.7538 383.662H291.238C293.206 383.658 295.091 382.876 296.483 381.486C297.874 380.097 298.658 378.213 298.662 376.248V7.6874C298.66 5.72174 297.877 3.8372 296.485 2.44727C295.093 1.05733 293.206 0.275534 291.238 0.273405H28.7538Z" fill="#2F2E41"/>
<path d="M586.236 384H322.789C320.724 383.996 318.746 383.178 317.286 381.725C315.826 380.272 315.004 378.303 315 376.248V7.6874C315.021 5.644 315.851 3.69123 317.309 2.25228C318.766 0.813336 320.735 0.00412142 322.789 0H586.236C588.286 0.00628028 590.251 0.816946 591.705 2.25611C593.158 3.69528 593.983 5.64685 594 7.6874V376.248C594 378.3 593.183 380.268 591.727 381.721C590.272 383.174 588.297 383.994 586.236 384ZM322.789 0.273401C320.814 0.27553 318.92 1.05733 317.524 2.44726C316.127 3.8372 315.341 5.72174 315.339 7.6874V376.248C315.344 378.213 316.13 380.097 317.526 381.486C318.922 382.876 320.814 383.658 322.789 383.662H586.236C588.21 383.658 590.102 382.876 591.498 381.486C592.894 380.097 593.681 378.213 593.685 376.248V7.6874C593.683 5.72174 592.897 3.8372 591.501 2.44726C590.104 1.05733 588.211 0.27553 586.236 0.273401H322.789Z" fill="#2F2E41"/>
<path d="M405.296 13H11.7038C5.23997 13 0 18.2437 0 24.7122V267.288C0 273.756 5.23997 279 11.7038 279H405.296C411.76 279 417 273.756 417 267.288V24.7122C417 18.2437 411.76 13 405.296 13Z" fill="#EBEBEB"/>
<path d="M417 26H0V241H417V26Z" fill="#FAFAFA"/>
<path d="M284 107.419C284.011 104.657 285.067 102.013 286.938 100.061C288.81 98.1091 291.344 97.0088 293.99 97H605.018C607.663 97.0089 610.197 98.1094 612.067 100.061C613.937 102.013 614.992 104.658 615 107.419V141H284V107.419Z" fill="#E6E6E6"/>
<path d="M364.5 126C368.642 126 372 122.418 372 118C372 113.582 368.642 110 364.5 110C360.358 110 357 113.582 357 118C357 122.418 360.358 126 364.5 126Z" fill="white"/>
<path d="M338 126C342.418 126 346 122.418 346 118C346 113.582 342.418 110 338 110C333.582 110 330 113.582 330 118C330 122.418 333.582 126 338 126Z" fill="white"/>
<path d="M311.5 126C315.642 126 319 122.418 319 118C319 113.582 315.642 110 311.5 110C307.358 110 304 113.582 304 118C304 122.418 307.358 126 311.5 126Z" fill="white"/>
<path d="M605.018 314H293.982C291.337 313.992 288.803 312.937 286.933 311.067C285.063 309.196 284.008 306.662 284 304.017V141H615V304.017C614.992 306.662 613.937 309.196 612.067 311.067C610.197 312.937 607.663 313.992 605.018 314Z" fill="#F5F5F5"/>
<path d="M240 163.955C240.008 161.317 241.063 158.79 242.933 156.925C244.803 155.06 247.337 154.008 249.982 154H561.018C563.663 154.008 566.197 155.06 568.067 156.925C569.937 158.79 570.992 161.317 571 163.955V196H240V163.955Z" fill="#F0F0F0"/>
<path d="M319.5 183C323.642 183 327 179.418 327 175C327 170.582 323.642 167 319.5 167C315.358 167 312 170.582 312 175C312 179.418 315.358 183 319.5 183Z" fill="#E6E6E6"/>
<path d="M292.5 183C296.642 183 300 179.418 300 175C300 170.582 296.642 167 292.5 167C288.358 167 285 170.582 285 175C285 179.418 288.358 183 292.5 183Z" fill="#E6E6E6"/>
<path d="M266 183C270.418 183 274 179.418 274 175C274 170.582 270.418 167 266 167C261.582 167 258 170.582 258 175C258 179.418 261.582 183 266 183Z" fill="#E6E6E6"/>
<path d="M560.986 369H249.982C247.336 368.996 244.799 367.943 242.928 366.071C241.057 364.2 240.004 361.663 240 359.016V196H571V359.016C570.994 361.668 569.935 364.208 568.058 366.08C566.18 367.952 563.637 369.002 560.986 369Z" fill="#FAFAFA"/>
<path d="M194 218.945C194.011 216.309 195.073 213.785 196.956 211.922C198.839 210.059 201.389 209.008 204.05 209H516.958C519.619 209.008 522.168 210.059 524.049 211.922C525.931 213.785 526.991 216.31 527 218.945V251H194V218.945Z" fill="#FAFAFA"/>
<path d="M275.5 238C279.642 238 283 234.642 283 230.5C283 226.358 279.642 223 275.5 223C271.358 223 268 226.358 268 230.5C268 234.642 271.358 238 275.5 238Z" fill="#F0F0F0"/>
<path d="M248 238C252.418 238 256 234.642 256 230.5C256 226.358 252.418 223 248 223C243.582 223 240 226.358 240 230.5C240 234.642 243.582 238 248 238Z" fill="#F0F0F0"/>
<path d="M222 238C225.866 238 229 234.642 229 230.5C229 226.358 225.866 223 222 223C218.134 223 215 226.358 215 230.5C215 234.642 218.134 238 222 238Z" fill="#F0F0F0"/>
<path d="M516.958 425H204.042C201.382 424.991 198.832 423.931 196.951 422.05C195.069 420.168 194.009 417.619 194 414.959V251H527V414.959C526.991 417.619 525.931 420.168 524.049 422.05C522.168 423.931 519.618 424.991 516.958 425Z" fill="#E6E6E6"/>
<path d="M228 38H217V39H228V38Z" fill="#08B74F"/>
<path d="M203 38H174V39H203V38Z" fill="#08B74F"/>
<path d="M91.3542 42H526.638C530.977 42.0021 535.137 43.7259 538.205 46.7925C541.273 49.8591 542.998 54.0177 543 58.3545V434H75V58.3545C75 54.0184 76.7228 49.8598 79.7895 46.793C82.8563 43.7261 87.0161 42.0021 91.3542 42Z" fill="#08B74F"/>
<path opacity="0.8" d="M543 67H75V428H543V67Z" fill="white"/>
<path opacity="0.4" d="M543 67H75V146H543V67Z" fill="#08B74F"/>
<path opacity="0.4" d="M533 74H514V93H533V74Z" fill="#08B74F"/>
<path opacity="0.4" d="M504 74H484V93H504V74Z" fill="#08B74F"/>
<path opacity="0.4" d="M475 74H456V93H475V74Z" fill="#08B74F"/>
<path d="M262.523 111.191H256.402L255.573 114H250L256.552 97H262.448L269 114H263.402L262.523 111.191ZM261.395 107.526L259.479 101.375L257.547 107.502L261.395 107.526Z" fill="#00002F"/>
<path d="M269 97H274.271V103.143C274.771 102.642 275.379 102.249 276.055 101.99C276.75 101.721 277.496 101.587 278.248 101.595C279.022 101.578 279.79 101.72 280.5 102.01C281.21 102.301 281.844 102.733 282.36 103.278C283.529 104.642 284.109 106.374 283.983 108.125C284.018 109.391 283.769 110.65 283.252 111.819C282.825 112.792 282.106 113.626 281.183 114.217C280.317 114.737 279.31 115.009 278.284 115C277.411 115.007 276.548 114.817 275.769 114.444C275.036 114.042 274.396 113.504 273.887 112.862V114.764H269.009L269 97ZM274.226 108.268C274.154 109.117 274.387 109.965 274.886 110.674C275.089 110.908 275.345 111.096 275.635 111.225C275.925 111.353 276.242 111.418 276.563 111.415C276.857 111.407 277.146 111.337 277.407 111.208C277.668 111.08 277.895 110.897 278.07 110.674C278.562 109.944 278.781 109.079 278.694 108.217C278.763 107.43 278.546 106.643 278.079 105.987C277.899 105.769 277.67 105.593 277.407 105.472C277.144 105.351 276.855 105.288 276.563 105.289C276.233 105.278 275.906 105.339 275.606 105.467C275.305 105.596 275.041 105.788 274.833 106.029C274.357 106.685 274.142 107.477 274.226 108.268Z" fill="#00002F"/>
<path d="M285.002 109.08C284.979 108.273 285.135 107.471 285.461 106.724C285.787 105.978 286.276 105.304 286.896 104.746C287.581 104.157 288.382 103.701 289.254 103.404C290.126 103.107 291.052 102.975 291.979 103.016C292.999 102.949 294.023 103.094 294.977 103.441C295.932 103.789 296.793 104.329 297.501 105.025C298.528 106.206 299.06 107.701 298.995 109.226C298.93 110.751 298.273 112.201 297.149 113.302C296.449 113.891 295.631 114.343 294.743 114.632C293.856 114.922 292.916 115.042 291.979 114.987C290.272 115.061 288.592 114.568 287.232 113.595C286.519 113.053 285.947 112.364 285.561 111.581C285.174 110.799 284.983 109.943 285.002 109.08ZM289.685 109.08C289.624 109.882 289.858 110.68 290.349 111.338C290.55 111.568 290.803 111.753 291.09 111.88C291.377 112.008 291.69 112.074 292.007 112.074C292.324 112.074 292.637 112.008 292.923 111.88C293.21 111.753 293.463 111.568 293.665 111.338C294.162 110.657 294.391 109.835 294.312 109.013C294.394 108.24 294.191 107.464 293.737 106.816C293.547 106.585 293.305 106.398 293.029 106.268C292.752 106.138 292.448 106.068 292.139 106.063C291.815 106.057 291.494 106.121 291.201 106.252C290.908 106.383 290.652 106.576 290.452 106.816C289.927 107.461 289.664 108.261 289.709 109.073L289.685 109.08Z" fill="#00002F"/>
<path d="M314 114.731H309.605V112.826C309.075 113.511 308.4 114.082 307.625 114.5C306.858 114.855 306.013 115.025 305.162 114.994C304.602 115.025 304.041 114.942 303.517 114.75C302.992 114.559 302.516 114.263 302.119 113.883C301.307 112.919 300.912 111.693 301.017 110.458V103H305.717V109.517C305.67 110.063 305.821 110.608 306.144 111.06C306.296 111.22 306.483 111.345 306.692 111.426C306.901 111.508 307.126 111.543 307.351 111.531C307.612 111.53 307.87 111.474 308.105 111.366C308.341 111.258 308.548 111.101 308.712 110.906C309.147 110.241 309.339 109.457 309.259 108.677V103H313.96L314 114.731Z" fill="#00002F"/>
<path d="M323.296 97V101.9H325.819V105.476H323.296V110.066C323.267 110.436 323.318 110.809 323.445 111.155C323.529 111.292 323.647 111.401 323.786 111.471C323.925 111.54 324.079 111.567 324.231 111.548C324.718 111.521 325.197 111.417 325.654 111.238L326 114.589C324.956 114.848 323.888 114.982 322.817 114.991C321.953 115.042 321.09 114.881 320.293 114.522C319.75 114.212 319.322 113.712 319.083 113.106C318.775 112.108 318.644 111.057 318.698 110.007V105.501H317V101.9H318.698V99.5545L323.296 97Z" fill="#00002F"/>
<path d="M346.849 97.0504H352V107.6C352.006 108.61 351.85 109.613 351.54 110.568C351.253 111.44 350.791 112.236 350.185 112.901C349.579 113.566 348.845 114.083 348.032 114.418C346.865 114.828 345.641 115.024 344.413 114.998C343.516 114.991 342.62 114.929 341.73 114.813C340.902 114.73 340.095 114.487 339.349 114.098C338.664 113.719 338.057 113.199 337.563 112.568C337.068 111.982 336.695 111.292 336.468 110.542C336.175 109.572 336.017 108.561 336 107.541V97H341.143V107.802C341.103 108.629 341.374 109.439 341.897 110.055C342.174 110.34 342.504 110.562 342.866 110.707C343.228 110.851 343.614 110.916 344 110.895C344.381 110.925 344.763 110.869 345.122 110.733C345.482 110.597 345.81 110.383 346.087 110.105C346.36 109.805 346.571 109.449 346.708 109.058C346.844 108.668 346.903 108.251 346.881 107.836L346.849 97.0504Z" fill="#00002F"/>
<path d="M354 111.591L358.688 111.186C358.823 111.624 359.106 112.01 359.495 112.288C359.903 112.526 360.378 112.647 360.859 112.633C361.381 112.662 361.898 112.527 362.328 112.251C362.453 112.175 362.557 112.072 362.629 111.951C362.701 111.829 362.739 111.692 362.739 111.553C362.738 111.394 362.687 111.238 362.592 111.105C362.498 110.972 362.364 110.867 362.207 110.804C361.547 110.588 360.866 110.435 360.173 110.346C359.016 110.19 357.877 109.939 356.768 109.597C356.122 109.371 355.561 108.975 355.154 108.457C354.711 107.931 354.475 107.28 354.484 106.613C354.475 105.911 354.725 105.228 355.194 104.678C355.703 104.097 356.377 103.658 357.139 103.411C358.216 103.109 359.339 102.972 360.464 103.007C361.55 102.971 362.636 103.077 363.691 103.321C364.349 103.511 364.947 103.845 365.434 104.296C365.953 104.804 366.351 105.406 366.604 106.065L362.126 106.47C362.044 106.146 361.841 105.859 361.553 105.661C361.147 105.419 360.671 105.301 360.189 105.323C359.782 105.292 359.374 105.384 359.027 105.586C358.916 105.658 358.825 105.755 358.762 105.867C358.698 105.979 358.665 106.104 358.664 106.23C358.664 106.367 358.708 106.5 358.79 106.614C358.872 106.727 358.988 106.816 359.124 106.868C359.775 107.078 360.454 107.204 361.141 107.242C362.337 107.332 363.514 107.566 364.644 107.94C365.35 108.195 365.961 108.635 366.403 109.207C366.798 109.734 367.007 110.363 367 111.006C366.988 111.691 366.767 112.36 366.362 112.933C365.861 113.61 365.153 114.132 364.329 114.432C363.123 114.839 361.842 115.023 360.56 114.972C358.903 115.099 357.239 114.793 355.759 114.087C354.851 113.495 354.221 112.601 354 111.591Z" fill="#00002F"/>
<path d="M171.5 301C209.332 301 240 270.108 240 232C240 193.892 209.332 163 171.5 163C133.669 163 103 193.892 103 232C103 270.108 133.669 301 171.5 301Z" fill="#08B74F"/>
<path d="M446.5 415C484.332 415 515 384.555 515 347C515 309.445 484.332 279 446.5 279C408.668 279 378 309.445 378 347C378 384.555 408.668 415 446.5 415Z" fill="#08B74F"/>
<path d="M439.155 225H261.861C260.307 225 258.816 224.367 257.717 223.24C256.618 222.113 256 220.585 256 218.992C256.002 217.403 256.619 215.881 257.714 214.757C258.81 213.634 260.296 213.002 261.845 213H439.155C440.704 213.002 442.19 213.634 443.286 214.757C444.381 215.881 444.998 217.403 445 218.992C445.002 219.779 444.853 220.56 444.56 221.288C444.268 222.016 443.839 222.678 443.296 223.236C442.754 223.794 442.11 224.237 441.401 224.54C440.692 224.843 439.931 224.999 439.163 225H439.155Z" fill="white"/>
<path d="M398.133 249.984H261.868C261.098 249.986 260.336 249.833 259.625 249.533C258.914 249.233 258.267 248.793 257.722 248.237C257.177 247.682 256.745 247.021 256.449 246.294C256.154 245.567 256.001 244.788 256 244C256.002 242.408 256.621 240.882 257.721 239.757C258.822 238.632 260.313 238 261.868 238H398.133C399.687 238 401.179 238.632 402.279 239.757C403.379 240.882 403.998 242.408 404 244C404.001 244.788 403.851 245.568 403.557 246.295C403.263 247.023 402.832 247.685 402.289 248.242C401.745 248.799 401.1 249.241 400.39 249.543C399.679 249.845 398.918 250 398.149 250L398.133 249.984Z" fill="white"/>
<path d="M287.968 341H357.016C358.603 341 360.125 340.367 361.247 339.24C362.37 338.113 363 336.585 363 334.992C363 333.403 362.371 331.879 361.252 330.755C360.133 329.631 358.615 329 357.032 329H287.968C286.385 329 284.867 329.631 283.748 330.755C282.629 331.879 282 333.403 282 334.992C281.998 335.779 282.15 336.558 282.448 337.286C282.746 338.014 283.184 338.676 283.736 339.233C284.289 339.791 284.946 340.235 285.669 340.538C286.392 340.841 287.168 340.998 287.951 341H287.968Z" fill="white"/>
<path d="M212.01 340.984H259.99C261.584 340.984 263.113 340.352 264.24 339.229C265.367 338.105 266 336.581 266 334.992C266 333.403 265.367 331.879 264.24 330.755C263.113 329.631 261.584 329 259.99 329H212.01C210.416 329 208.887 329.631 207.76 330.755C206.633 331.879 206 333.403 206 334.992C205.998 335.779 206.151 336.558 206.451 337.286C206.751 338.014 207.192 338.676 207.749 339.233C208.305 339.791 208.966 340.235 209.695 340.538C210.423 340.841 211.204 340.998 211.993 341L212.01 340.984Z" fill="white"/>
<path d="M177.908 365H357.067C357.844 365.003 358.614 364.863 359.332 364.589C360.051 364.315 360.704 363.912 361.255 363.402C361.806 362.893 362.244 362.287 362.543 361.62C362.843 360.953 362.998 360.238 363 359.515C363 358.052 362.376 356.65 361.265 355.615C360.154 354.581 358.647 354 357.075 354H177.908C176.341 354 174.839 354.579 173.731 355.611C172.622 356.642 172 358.041 172 359.5C172 360.959 172.622 362.358 173.731 363.389C174.839 364.42 176.341 365 177.908 365Z" fill="white"/>
<path d="M104 55.5C104 56.5878 103.707 57.6512 103.157 58.5556C102.608 59.4601 101.827 60.1651 100.913 60.5813C99.9998 60.9976 98.9945 61.1065 98.0245 60.8943C97.0546 60.6821 96.1637 60.1583 95.4645 59.3891C94.7652 58.6199 94.289 57.6399 94.0961 56.573C93.9032 55.5061 94.0022 54.4002 94.3806 53.3952C94.759 52.3902 95.3999 51.5313 96.2221 50.9269C97.0444 50.3226 98.0111 50 99 50C100.326 50 101.598 50.5795 102.536 51.6109C103.473 52.6424 104 54.0413 104 55.5Z" fill="white"/>
<path d="M118 61C121.314 61 124 58.5376 124 55.5C124 52.4624 121.314 50 118 50C114.686 50 112 52.4624 112 55.5C112 58.5376 114.686 61 118 61Z" fill="white"/>
<path d="M142.961 55.4043C143.463 52.3084 141.361 49.3914 138.265 48.8889C135.169 48.3864 132.252 50.4887 131.75 53.5845C131.247 56.6803 133.349 59.5973 136.445 60.0998C139.541 60.6024 142.458 58.5001 142.961 55.4043Z" fill="white"/>
<path d="M446.5 411C482.122 411 511 381.898 511 346C511 310.101 482.122 281 446.5 281C410.878 281 382 310.101 382 346C382 381.898 410.878 411 446.5 411Z" fill="white"/>
<mask id="mask0_79_3" style="mask-type:luminance" maskUnits="userSpaceOnUse" x="381" y="282" width="130" height="130">
<path d="M446.298 411.102C481.933 411.102 510.822 382.214 510.822 346.578C510.822 310.943 481.933 282.054 446.298 282.054C410.662 282.054 381.773 310.943 381.773 346.578C381.773 382.214 410.662 411.102 446.298 411.102Z" fill="white"/>
</mask>
<g mask="url(#mask0_79_3)">
<path d="M472.24 375.343C472.24 375.343 485.146 393.831 484.799 414.062C484.452 434.293 480.226 530.18 480.226 530.18H464.859L460.019 404.866L457.994 404.745L430.213 530.22L415.879 528.695L432.544 415.224C433.662 407.927 435.653 400.791 438.473 393.968C440.893 388.152 444.225 381.522 448.387 376.391L472.24 375.343Z" fill="#2F2E41"/>
<g opacity="0.2">
<path d="M453.388 405.358C453.298 405.354 453.212 405.317 453.147 405.254C453.083 405.191 453.043 405.106 453.036 405.016C453.029 404.926 453.055 404.837 453.11 404.765C453.164 404.692 453.243 404.643 453.331 404.624L463.132 402.914C463.182 402.899 463.235 402.895 463.287 402.902C463.339 402.909 463.388 402.927 463.433 402.954C463.477 402.982 463.516 403.018 463.545 403.061C463.574 403.105 463.594 403.154 463.603 403.205C463.613 403.256 463.611 403.309 463.598 403.36C463.585 403.411 463.562 403.458 463.53 403.499C463.498 403.54 463.457 403.574 463.411 403.598C463.364 403.623 463.313 403.637 463.261 403.64L453.452 405.35L453.388 405.358Z" fill="black"/>
</g>
<path opacity="0.2" d="M445.596 387.507L440.861 401.139" stroke="black" stroke-width="0.95" stroke-linecap="round" stroke-linejoin="round"/>
<path d="M438.401 297.541C438.401 297.541 437.328 308.31 425.107 316.974C412.088 326.21 421.792 351.773 445.709 350.587C471.691 349.288 482.468 315.901 465.52 290.556L438.401 297.541Z" fill="#2F2E41"/>
<path d="M456.623 329.299L440.877 333.728C436.327 335.002 432.689 339.826 434.061 344.343L448.242 376.432L472.239 375.343L480.669 340.576C481.395 335.857 476.499 331.566 471.747 331.026L456.623 329.299Z" fill="#08B74F"/>
<path d="M440.877 333.728L456.623 329.299L471.748 331.026L471.433 331.284C467.222 334.811 462.017 336.939 456.541 337.373C451.066 337.806 445.591 336.524 440.877 333.704V333.728Z" fill="#F9B499"/>
<path d="M491.979 372.294L474.055 388.209L477.193 393.622L497.891 381.006C499.537 379.986 500.775 378.424 501.393 376.59C502.012 374.755 501.971 372.763 501.279 370.955C501.207 370.778 501.126 370.6 501.045 370.423L498.625 365.421L491.979 372.294Z" fill="#F9B499"/>
<path d="M486.453 340.842L501.376 366.357C501.548 366.789 501.63 367.251 501.616 367.716C501.603 368.181 501.495 368.638 501.299 369.06C501.102 369.481 500.822 369.858 500.474 370.168C500.127 370.477 499.72 370.712 499.279 370.858L492.083 373.278C491.545 373.453 490.968 373.47 490.42 373.327C489.873 373.184 489.378 372.887 488.994 372.471C486.348 369.656 474.716 360.783 475.087 349.949L470.957 342.552L471.764 331.025C479.459 331.953 485.025 337.325 486.453 340.842Z" fill="#08B74F"/>
<g opacity="0.2">
<path d="M476.709 357.936H476.604C476.517 357.906 476.446 357.844 476.404 357.763C476.362 357.682 476.352 357.588 476.378 357.5L479.71 346.53C479.736 346.441 479.797 346.366 479.879 346.322C479.961 346.278 480.056 346.269 480.145 346.296C480.234 346.322 480.308 346.383 480.352 346.465C480.396 346.547 480.406 346.642 480.379 346.731L477.04 357.702C477.017 357.771 476.973 357.831 476.913 357.874C476.853 357.916 476.782 357.937 476.709 357.936Z" fill="black"/>
</g>
<path d="M480.072 388.984C479.677 389.331 477.337 399.745 477.337 399.745L474.111 388.209L480.072 388.984Z" fill="#F9B499"/>
<path opacity="0.2" d="M472.836 386.862L476.918 401.213" stroke="black" stroke-width="0.95" stroke-linecap="round" stroke-linejoin="round"/>
<path d="M428.697 344.158L416.799 371.213C416.678 371.663 416.65 372.132 416.717 372.593C416.784 373.053 416.945 373.496 417.189 373.892C417.433 374.289 417.755 374.631 418.136 374.899C418.517 375.166 418.948 375.353 419.404 375.448L425.051 376.715C426.18 376.948 426.882 379.635 427.575 378.715C429.882 375.609 442.684 362.63 441.079 351.91L444.305 344.085L440.885 333.728C433.327 335.535 429.721 340.504 428.697 344.158Z" fill="#08B74F"/>
<g opacity="0.2">
<path d="M440.304 360.033C440.236 360.032 440.169 360.012 440.112 359.975C440.055 359.938 440.01 359.885 439.982 359.823L435.416 349.336C435.398 349.295 435.387 349.249 435.386 349.204C435.385 349.158 435.393 349.112 435.41 349.07C435.426 349.027 435.451 348.988 435.482 348.955C435.514 348.922 435.552 348.895 435.594 348.877C435.635 348.858 435.68 348.848 435.726 348.847C435.772 348.846 435.818 348.854 435.86 348.87C435.903 348.887 435.942 348.911 435.975 348.943C436.008 348.974 436.035 349.012 436.053 349.054L440.619 359.54C440.638 359.582 440.648 359.627 440.649 359.673C440.65 359.719 440.643 359.765 440.626 359.807C440.61 359.85 440.585 359.889 440.553 359.922C440.521 359.955 440.484 359.982 440.442 360C440.398 360.018 440.351 360.029 440.304 360.033Z" fill="black"/>
</g>
<path d="M401.077 342.182L395.487 344.497L418 376.698C418.417 377.538 419.018 378.273 419.758 378.848C420.498 379.423 421.359 379.823 422.275 380.019C423.192 380.216 424.141 380.202 425.052 379.981C425.962 379.759 426.811 379.335 427.535 378.739C428.77 377.719 429.566 376.263 429.757 374.673C429.947 373.082 429.519 371.48 428.56 370.197L401.077 342.182Z" fill="#F9B499"/>
<path d="M401.327 343.803L402.464 342.109C403.297 340.869 403.654 339.372 403.473 337.89L402.964 333.752C402.964 333.752 402.739 331.566 398.609 333.026C394.479 334.486 394.237 334.559 394.575 335.809C394.575 335.809 395.737 337.422 398.544 337.148L401.327 343.803Z" fill="#F9B499"/>
<path d="M396.091 345.586C396.091 345.586 391.397 344.167 389.638 336.866C389.537 336.451 389.543 336.017 389.656 335.605C389.769 335.193 389.985 334.816 390.283 334.511C391.219 333.567 393.962 331.083 395.93 331.873L399.697 335.035L401.391 343.804L396.091 345.586Z" fill="#F9B499"/>
<path d="M399.972 333.623L399.754 321.281C399.747 320.927 399.601 320.59 399.347 320.344C399.093 320.097 398.752 319.962 398.399 319.966C398.046 319.966 397.708 320.105 397.457 320.352C397.207 320.6 397.064 320.937 397.06 321.289L396.93 330.686L395.979 331.09L390.59 322.773C390.5 322.635 390.383 322.517 390.246 322.425C390.109 322.333 389.955 322.27 389.793 322.239C389.631 322.208 389.465 322.21 389.304 322.245C389.143 322.28 388.99 322.347 388.856 322.442C388.618 322.614 388.449 322.866 388.379 323.151C388.31 323.436 388.344 323.737 388.477 323.999L394.567 335.809L399.972 333.623Z" fill="#F9B499"/>
<path d="M399.948 332.646C399.948 332.646 394.067 333.34 394.551 335.809C394.551 335.809 394.826 337.672 398.52 337.148C397.893 337.513 397.396 338.064 397.097 338.724C396.798 339.385 396.711 340.122 396.85 340.834" stroke="#F7A48B" stroke-miterlimit="10"/>
<path d="M445.421 312.777C446.925 310.922 446.64 308.199 444.786 306.695C442.931 305.191 440.208 305.476 438.704 307.33C437.2 309.185 437.484 311.908 439.339 313.412C441.194 314.916 443.917 314.632 445.421 312.777Z" fill="#F9B499"/>
<path d="M439.555 309.624C439.555 309.624 441.168 308.648 443.088 311.488" stroke="#F7A48B" stroke-linecap="round" stroke-linejoin="round"/>
<path d="M462.1 308.334C462.173 309.186 462.497 309.996 463.03 310.664C463.564 311.332 464.283 311.826 465.097 312.085C465.912 312.344 466.785 312.356 467.606 312.119C468.427 311.883 469.159 311.408 469.711 310.755C470.262 310.102 470.608 309.301 470.704 308.452C470.8 307.603 470.643 306.744 470.251 305.984C469.86 305.225 469.252 304.598 468.505 304.184C467.758 303.769 466.904 303.586 466.053 303.656C464.908 303.752 463.849 304.299 463.108 305.177C462.367 306.054 462.004 307.19 462.1 308.334Z" fill="#F9B499"/>
<path d="M468.779 307.093C468.779 307.093 466.972 306.447 465.681 309.601" stroke="#F7A48B" stroke-linecap="round" stroke-linejoin="round"/>
<path d="M454.419 312.331C462.609 311.639 468.725 304.881 468.079 297.237C467.433 289.593 460.27 283.957 452.079 284.649C443.889 285.341 437.773 292.099 438.419 299.743C439.065 307.387 446.228 313.023 454.419 312.331Z" fill="#2F2E41"/>
<path d="M459.099 317.256C458.143 318.281 456.991 319.104 455.711 319.676C455.125 319.813 454.517 319.831 453.924 319.728C453.331 319.626 452.764 319.405 452.258 319.079L450.145 317.756L450.548 332.018L450.782 332.235C453.936 335.091 458.099 334.784 460.752 331.493L461.14 331.017L459.099 317.256Z" fill="#F9B499"/>
<path d="M448.669 316.006C448.669 316.006 451.758 324.072 456.026 323.653C459.526 323.29 459.849 315.473 459.849 315.473L448.669 316.006Z" fill="#F7A48B"/>
<path d="M465.189 299.953C465.531 303.841 465.412 307.757 464.834 311.617C464.407 314.473 462.665 316.602 460.099 318.417L459.64 318.748C458.272 319.696 456.686 320.28 455.031 320.445C453.375 320.61 451.705 320.351 450.178 319.692C447.104 318.337 444.862 316.392 443.966 313.448C442.894 309.719 442.122 305.911 441.659 302.058C441.659 302.058 439.61 289.523 452.323 288.619C465.036 287.716 465.189 299.953 465.189 299.953Z" fill="#F9B499"/>
<path d="M464.947 297.09C464.947 297.09 446.322 299.365 446.185 288.338C446.193 288.338 462.076 282.385 464.947 297.09Z" fill="#2F2E41"/>
<path d="M441.127 299.106C441.127 299.106 447.467 295.807 446.894 289.079C446.894 289.079 440.231 290.45 441.127 299.106Z" fill="#2F2E41"/>
</g>
<path d="M171 296C206.346 296 235 267.122 235 231.5C235 195.878 206.346 167 171 167C135.654 167 107 195.878 107 231.5C107 267.122 135.654 296 171 296Z" fill="white"/>
<mask id="mask1_79_3" style="mask-type:luminance" maskUnits="userSpaceOnUse" x="107" y="167" width="130" height="130">
<path d="M171.641 296.244C207.277 296.244 236.165 267.355 236.165 231.719C236.165 196.084 207.277 167.195 171.641 167.195C136.006 167.195 107.117 196.084 107.117 231.719C107.117 267.355 136.006 296.244 171.641 296.244Z" fill="white"/>
</mask>
<g mask="url(#mask1_79_3)">
<path d="M170.908 181.554C170.908 181.554 176.829 178.916 178.926 183.902C180.942 188.701 172.924 193.275 172.924 193.275L170.908 181.554Z" fill="#2F2E41"/>
<path d="M159.832 201.414C159.857 202.213 159.645 203.001 159.221 203.679C158.798 204.357 158.182 204.894 157.453 205.221C156.724 205.549 155.914 205.652 155.126 205.518C154.338 205.385 153.608 205.02 153.027 204.47C152.447 203.921 152.043 203.211 151.867 202.431C151.691 201.652 151.75 200.837 152.037 200.092C152.325 199.346 152.827 198.702 153.481 198.242C154.135 197.783 154.911 197.528 155.71 197.51C156.773 197.486 157.802 197.883 158.574 198.614C159.346 199.345 159.798 200.351 159.832 201.414Z" fill="#F9B499"/>
<path d="M153.548 200.962C153.548 200.962 155.161 200.156 156.67 202.955" stroke="#F7A48B" stroke-linecap="round" stroke-linejoin="round"/>
<path d="M178.514 205.544C180.732 205.544 182.531 203.746 182.531 201.527C182.531 199.308 180.732 197.51 178.514 197.51C176.295 197.51 174.497 199.308 174.497 201.527C174.497 203.746 176.295 205.544 178.514 205.544Z" fill="#F9B499"/>
<path d="M180.804 200.914C180.804 200.914 179.191 200.18 177.739 202.995" stroke="#F7A48B" stroke-linecap="round" stroke-linejoin="round"/>
<path d="M172.319 210.78C171.007 211.694 169.543 212.369 167.996 212.772C166.581 212.953 165.146 212.67 163.906 211.966L161.486 210.578L160.502 223.799L160.768 224.017C162.466 225.424 164.598 226.201 166.804 226.215C169.009 226.23 171.151 225.482 172.868 224.098L173.384 223.686L172.319 210.78Z" fill="#F9B499"/>
<path d="M160.509 209.174C160.509 209.174 162.76 216.539 167.93 216.434C172.19 216.369 172.875 209.174 172.875 209.174H160.509Z" fill="#F7A48B"/>
<path d="M178.014 194.534C178.027 198.309 177.611 202.074 176.772 205.754C176.159 208.481 174.352 210.385 171.867 211.933L171.416 212.216C170.09 213.017 168.575 213.452 167.026 213.476C165.477 213.5 163.949 213.112 162.599 212.353C159.856 210.796 157.937 208.731 157.332 205.811C156.63 202.119 156.215 198.379 156.089 194.623C156.089 194.623 154.549 182.345 166.374 182.523C178.2 182.7 178.014 194.534 178.014 194.534Z" fill="#F9B499"/>
<path d="M156.493 200.454C156.493 200.454 158.219 187.2 157.412 184.99C157.412 184.99 151.435 189.919 156.493 200.454Z" fill="#2F2E41"/>
<path d="M177.579 200.35C177.579 200.35 175.602 187.669 176.151 184.023C176.143 184.023 181.894 189.113 177.579 200.35Z" fill="#2F2E41"/>
<path d="M175.731 183.119L170.278 182.312L169.802 181.369L166.922 181.804L164.043 181.369L163.567 182.312L158.114 183.119L157.388 186.031L157.565 189.395C157.565 189.395 158.428 185.579 161.429 186.346C162.139 186.523 162.986 186.822 163.978 187.015C164.848 187.206 165.734 187.312 166.624 187.33H167.221C168.111 187.311 168.997 187.206 169.867 187.015C170.73 186.848 171.582 186.625 172.416 186.346C175.199 185.37 176.223 189.225 176.223 189.225L176.457 185.999L175.731 183.119Z" fill="#1D0300"/>
<path d="M175.626 186.434C174.507 187.344 173.141 187.9 171.705 188.031C170.268 188.162 168.825 187.861 167.559 187.168C167.559 187.168 156 194.291 152.741 186.539C150.023 180.086 161.308 171.31 172.956 181.191L175.626 186.434Z" fill="#2F2E41"/>
<path d="M168.705 299.641L177.82 400.618H195.954L189.113 279.902L166.616 277.91L147.99 276.99L140.472 340.934C140.329 342.312 140.48 343.704 140.917 345.019C141.353 346.334 142.064 347.541 143.002 348.56C143.94 349.58 145.085 350.388 146.359 350.931C147.634 351.474 149.009 351.74 150.394 351.71C152.635 351.666 154.792 350.852 156.503 349.405C158.214 347.958 159.375 345.967 159.792 343.765L168.705 299.641Z" fill="#2F2E41"/>
<path d="M186.919 229.018L173.367 223.67L160.509 223.783L143.569 231.712C142.238 232.519 142.489 234.132 142.973 235.592L146.804 280.91L189.331 280.329L192.098 234.277C192.444 232.769 188.322 229.696 186.919 229.018Z" fill="#08B74F"/>
<path d="M160.51 223.783L156.718 225.525C156.718 225.525 156.718 231.874 166.971 231.543C177.53 231.204 177.506 225.227 177.506 225.227L173.368 223.67L160.51 223.783Z" fill="#F9B499"/>
<path d="M209.288 257.331L180.7 243.675L194.881 235.245L207.578 243.102L209.288 257.331Z" fill="#F9B499"/>
<path d="M203.988 212.828L209.521 210.844L219.314 249.45C219.634 250.416 219.732 251.442 219.601 252.451C219.47 253.46 219.113 254.426 218.558 255.279C218.002 256.131 217.262 256.847 216.391 257.374C215.521 257.902 214.543 258.226 213.531 258.323C211.795 258.488 210.062 257.977 208.694 256.897C207.325 255.816 206.425 254.25 206.182 252.523L203.988 212.828Z" fill="#F9B499"/>
<path d="M203.988 212.828L201.35 209.916C199.971 208.399 198.971 206.578 198.43 204.6L197.47 201.116C197.418 200.921 197.408 200.717 197.442 200.518C197.476 200.319 197.553 200.129 197.667 199.963C197.782 199.797 197.931 199.657 198.104 199.554C198.278 199.451 198.471 199.386 198.672 199.365C199.025 199.332 199.379 199.404 199.69 199.572C200.002 199.74 200.257 199.996 200.423 200.309L202.205 203.705L202.697 188.701C202.701 188.549 202.736 188.399 202.801 188.261C202.866 188.124 202.96 188.001 203.076 187.902C203.191 187.803 203.327 187.73 203.473 187.687C203.619 187.644 203.773 187.632 203.924 187.653L204.351 187.717C204.597 187.749 204.824 187.865 204.994 188.046C205.163 188.227 205.264 188.462 205.279 188.709V197.582L206.706 187.37C206.718 187.219 206.762 187.072 206.835 186.938C206.908 186.805 207.009 186.689 207.13 186.597C207.251 186.506 207.39 186.441 207.538 186.408C207.687 186.374 207.84 186.372 207.989 186.402L208.304 186.467C208.561 186.516 208.79 186.658 208.948 186.867C209.106 187.076 209.181 187.335 209.159 187.596L207.989 198.268L210.498 189.919C210.54 189.764 210.616 189.621 210.721 189.499C210.826 189.378 210.957 189.281 211.104 189.217C211.251 189.153 211.41 189.123 211.571 189.128C211.731 189.134 211.888 189.175 212.03 189.25L212.151 189.314C212.355 189.42 212.519 189.588 212.62 189.795C212.72 190.001 212.751 190.234 212.708 190.46L211.038 199.454L212.748 194.154C212.806 193.982 212.906 193.827 213.039 193.704C213.172 193.581 213.334 193.493 213.51 193.449C213.686 193.404 213.87 193.405 214.046 193.451C214.222 193.497 214.383 193.586 214.515 193.71C214.648 193.838 214.747 193.998 214.8 194.174C214.854 194.351 214.861 194.539 214.821 194.719L210.361 214.627L203.988 212.828Z" fill="#F9B499"/>
<path d="M202.205 203.705C203.19 204.014 204.095 204.535 204.856 205.232C205.617 205.929 206.216 206.784 206.609 207.738" stroke="#F7A48B" stroke-linecap="round" stroke-linejoin="round"/>
<path d="M205.537 242.44L206.125 249.797" stroke="#F7A48B" stroke-linecap="round" stroke-linejoin="round"/>
<path d="M185.032 228.34C195.639 231.567 202.972 240.222 202.972 240.222L194.994 256.057L176.683 247.563L185.032 228.34Z" fill="#08B74F"/>
<path opacity="0.2" d="M190.888 254.186L185.685 251.766" stroke="black" stroke-width="0.95" stroke-linecap="round" stroke-linejoin="round"/>
<path d="M135.221 246.401L128.768 269.624C128.034 273.319 132.406 277.505 135.947 278.449C139.448 279.377 138.706 276.634 139.626 273.037L148.41 251.063L135.221 246.401Z" fill="#F9B499"/>
<path d="M129.389 272.319C130.534 277.062 145.522 287.524 145.522 287.524L154.113 287.605L138.52 266.067L129.389 272.319Z" fill="#F9B499"/>
<path d="M156.776 289.88C158.129 290.52 159.641 290.75 161.123 290.541C161.387 290.488 161.628 290.354 161.811 290.158C161.995 289.962 162.113 289.713 162.149 289.446C162.184 289.18 162.135 288.909 162.01 288.671C161.884 288.434 161.687 288.242 161.446 288.121C158.639 286.677 152.726 283.281 150.395 282.475L146.362 281.337L142.538 285.137L145.539 287.557C145.539 287.557 146.257 291.356 147.725 292.647C147.733 292.614 154.057 293.599 156.776 289.88Z" fill="#F9B499"/>
<path d="M141.029 269.528L138.521 266.067" stroke="#F7A48B" stroke-linecap="round" stroke-linejoin="round"/>
<path d="M143.553 231.712C143.553 231.712 132.857 235.285 130.647 254.298L151.814 260.606L157.702 242.255L143.553 231.712Z" fill="#08B74F"/>
<path opacity="0.2" d="M145.127 258.985L144.175 248.442" stroke="black" stroke-width="0.95" stroke-linecap="round" stroke-linejoin="round"/>
</g>
</svg>
