<?xml version="1.0" encoding="UTF-8"?>
<!DOCTYPE svg PUBLIC "-//W3C//DTD SVG 1.1//EN" "http://www.w3.org/Graphics/SVG/1.1/DTD/svg11.dtd">
<!-- Creator: CorelDRAW 2020 (64-Bit) -->
<svg xmlns="http://www.w3.org/2000/svg" xml:space="preserve" width="11.6929in" height="8.26772in" version="1.1" style="shape-rendering:geometricPrecision; text-rendering:geometricPrecision; image-rendering:optimizeQuality; fill-rule:evenodd; clip-rule:evenodd"
viewBox="0 0 11692.91 8267.72"
 xmlns:xlink="http://www.w3.org/1999/xlink"
 xmlns:xodm="http://www.corel.com/coreldraw/odm/2003">
 <defs>
  <style type="text/css">
   <![CDATA[
    .fil0 {fill:url(#id0)}
   ]]>
  </style>
  <radialGradient id="id0" gradientUnits="userSpaceOnUse" gradientTransform="matrix(-0.126873 2.71067 2.30744 2.24904 6633 -16985)" cx="6196.13" cy="151.5" r="2916.54" fx="6196.13" fy="151.5">
   <stop offset="0" style="stop-opacity:1; stop-color:#7FC34D"/>
   <stop offset="1" style="stop-opacity:1; stop-color:#00A859"/>
  </radialGradient>
 </defs>
 <g id="Layer_x0020_1">
  <metadata id="CorelCorpID_0Corel-Layer"/>
  <path class="fil0" d="M4089.89 1574.1c-1243.44,917.65 -1508.78,2667.86 -592.65,3909.25 776.96,1052.8 2154.08,1401.3 3313.07,923.23l848.05 366.78c281.06,200.09 452.66,27.65 346.95,-269.64l-94.83 -911.3c794,-966.39 865.02,-2381.48 89.64,-3432.14 -916.13,-1241.39 -2666.78,-1503.82 -3910.23,-586.17zm753.22 1930.21l531 509.12 1248.17 -1253.63c106.22,-106.68 229.96,0.78 333.94,109.46l361.32 377.78c103.98,108.7 -13.81,260.77 -120.44,366.78l-1828.45 1817.51 -1111.32 -1007.28c-111.48,-101.05 -276.89,-244.63 -169.69,-350.35l394.17 -388.71c107.2,-105.73 252.7,-284.76 361.31,-180.66z"/>
 </g>
</svg>
