<svg width="953" height="227" viewBox="0 0 953 227" fill="none" xmlns="http://www.w3.org/2000/svg">
<path d="M288.399 183.931C280.548 183.931 273.598 182.193 267.548 178.718C261.628 175.114 256.994 170.287 253.648 164.238V223.123H227.777V80.8342H250.365V98.21C254.227 92.2894 259.118 87.6558 265.038 84.3094C270.959 80.8342 277.716 79.0966 285.31 79.0966C292.132 79.0966 298.374 80.4481 304.037 83.151C309.829 85.8539 314.849 89.6508 319.096 94.5418C323.344 99.3041 326.626 104.839 328.943 111.145C331.388 117.323 332.611 124.016 332.611 131.224C332.611 141.006 330.68 149.887 326.819 157.867C323.086 165.847 317.874 172.218 311.181 176.98C304.617 181.614 297.023 183.931 288.399 183.931ZM279.711 161.921C283.701 161.921 287.305 161.085 290.523 159.411C293.741 157.738 296.508 155.486 298.825 152.654C301.27 149.694 303.072 146.412 304.23 142.808C305.518 139.075 306.161 135.214 306.161 131.224C306.161 126.977 305.453 123.051 304.037 119.447C302.75 115.843 300.82 112.69 298.245 109.987C295.671 107.155 292.647 104.967 289.171 103.423C285.825 101.878 282.157 101.106 278.167 101.106C275.721 101.106 273.211 101.556 270.637 102.457C268.192 103.23 265.811 104.388 263.494 105.933C261.177 107.477 259.118 109.279 257.316 111.338C255.643 113.398 254.42 115.65 253.648 118.096V141.843C255.192 145.575 257.251 148.986 259.826 152.075C262.529 155.164 265.618 157.61 269.093 159.411C272.568 161.085 276.107 161.921 279.711 161.921ZM350.139 182V80.8342H376.01V182H350.139ZM350.139 66.7405V41.0629H376.01V66.7405H350.139ZM493.37 182H467.5V125.239C467.5 117.13 466.084 111.21 463.252 107.477C460.421 103.745 456.495 101.878 451.475 101.878C448 101.878 444.461 102.779 440.857 104.581C437.382 106.383 434.228 108.893 431.397 112.111C428.565 115.2 426.506 118.804 425.219 122.922V182H399.348V80.8342H422.709V99.5615C425.283 95.1853 428.565 91.5171 432.555 88.5568C436.545 85.4678 441.114 83.151 446.263 81.6065C451.54 79.9332 457.074 79.0966 462.866 79.0966C469.173 79.0966 474.321 80.255 478.311 82.5718C482.43 84.7599 485.519 87.7845 487.578 91.6458C489.766 95.3784 491.247 99.6258 492.019 104.388C492.92 109.15 493.37 113.977 493.37 118.868V182ZM515.865 182V80.8342H541.736V182H515.865ZM515.865 66.7405V41.0629H541.736V66.7405H515.865ZM611.796 183.931C603.558 183.931 596.158 182.579 589.593 179.876C583.029 177.045 577.43 173.183 572.797 168.292C568.292 163.401 564.817 157.803 562.371 151.496C559.926 145.189 558.703 138.56 558.703 131.61C558.703 124.531 559.926 117.838 562.371 111.531C564.817 105.225 568.292 99.6258 572.797 94.7349C577.43 89.8439 583.029 86.047 589.593 83.344C596.158 80.5124 603.558 79.0966 611.796 79.0966C620.033 79.0966 627.37 80.5124 633.805 83.344C640.369 86.047 645.968 89.8439 650.602 94.7349C655.235 99.6258 658.71 105.225 661.027 111.531C663.473 117.838 664.695 124.531 664.695 131.61C664.695 138.56 663.473 145.189 661.027 151.496C658.71 157.803 655.235 163.401 650.602 168.292C646.097 173.183 640.562 177.045 633.998 179.876C627.434 182.579 620.033 183.931 611.796 183.931ZM585.346 131.61C585.346 137.531 586.504 142.808 588.821 147.441C591.138 151.946 594.291 155.486 598.281 158.06C602.271 160.634 606.776 161.921 611.796 161.921C616.687 161.921 621.127 160.634 625.117 158.06C629.107 155.357 632.261 151.753 634.577 147.248C637.023 142.615 638.246 137.338 638.246 131.417C638.246 125.625 637.023 120.412 634.577 115.779C632.261 111.145 629.107 107.541 625.117 104.967C621.127 102.393 616.687 101.106 611.796 101.106C606.776 101.106 602.271 102.457 598.281 105.16C594.291 107.735 591.138 111.338 588.821 115.972C586.504 120.477 585.346 125.69 585.346 131.61ZM776.18 182H750.309V125.239C750.309 117.13 748.893 111.21 746.062 107.477C743.23 103.745 739.304 101.878 734.285 101.878C730.809 101.878 727.27 102.779 723.666 104.581C720.191 106.383 717.037 108.893 714.206 112.111C711.374 115.2 709.315 118.804 708.028 122.922V182H682.157V80.8342H705.518V99.5615C708.092 95.1853 711.374 91.5171 715.364 88.5568C719.354 85.4678 723.923 83.151 729.072 81.6065C734.349 79.9332 739.883 79.0966 745.675 79.0966C751.982 79.0966 757.131 80.255 761.121 82.5718C765.239 84.7599 768.328 87.7845 770.388 91.6458C772.576 95.3784 774.056 99.6258 774.828 104.388C775.729 109.15 776.18 113.977 776.18 118.868V182ZM798.482 41.0629H824.352V149.565C824.352 154.199 825.124 157.352 826.669 159.025C828.214 160.57 830.337 161.342 833.04 161.342C835.099 161.342 837.223 161.085 839.411 160.57C841.599 160.055 843.53 159.411 845.203 158.639L848.678 178.332C845.203 180.005 841.149 181.292 836.515 182.193C831.882 183.094 827.699 183.545 823.966 183.545C815.857 183.545 809.551 181.421 805.046 177.173C800.67 172.797 798.482 166.619 798.482 158.639V41.0629ZM857.172 201.693C859.488 202.207 861.612 202.658 863.543 203.044C865.602 203.43 867.34 203.623 868.756 203.623C871.201 203.623 873.196 202.98 874.741 201.693C876.414 200.534 878.023 198.346 879.567 195.128C881.112 192.039 882.721 187.663 884.394 182L844.429 80.8342H871.265L898.487 155.55L922.427 80.8342H947.14L904.666 202.079C903.121 206.584 900.74 210.638 897.522 214.242C894.433 217.974 890.507 220.87 885.745 222.93C881.112 225.118 875.899 226.212 870.107 226.212C868.048 226.212 865.988 226.019 863.929 225.633C861.87 225.375 859.617 224.86 857.172 224.088V201.693Z" fill="#00002F"/>
<path fill-rule="evenodd" clip-rule="evenodd" d="M43.9661 22.1593C-4.07702 57.6149 -14.3289 125.239 21.0682 173.203C51.0884 213.881 104.296 227.346 149.077 208.874L181.844 223.046C192.704 230.777 199.334 224.114 195.25 212.628L191.585 177.417C222.263 140.079 225.008 85.4031 195.048 44.8076C159.651 -3.15686 92.0103 -13.2964 43.9661 22.1593ZM73.0685 96.7378L93.5856 116.409L141.812 67.9714C145.916 63.8492 150.698 68.0012 154.715 72.2011L168.675 86.797C172.692 90.997 168.141 96.8722 164.022 100.968L93.3744 171.192L50.4356 132.273C46.1281 128.369 39.7373 122.821 43.8788 118.737L59.1082 103.718C63.2496 99.6331 68.8714 92.7154 73.0676 96.7378H73.0685Z" fill="url(#paint0_radial_37_40)"/>
<defs>
<radialGradient id="paint0_radial_37_40" cx="0" cy="0" r="1" gradientUnits="userSpaceOnUse" gradientTransform="translate(-33.8882 -128.778) rotate(73.7504) scale(866.62 769.673)">
<stop stop-color="#F0D800"/>
<stop offset="0.333429" stop-color="#00A859"/>
</radialGradient>
</defs>
</svg>
