<svg width="2144" height="1611" viewBox="0 0 2144 1611" fill="none" xmlns="http://www.w3.org/2000/svg">
<g clip-path="url(#clip0_5_57)">
<path d="M331.887 530.738C512.312 530.738 652.123 427.688 649.973 274.776C649.973 139.476 506.836 31.3133 326.411 31.3133C145.961 31.3133 -0.275879 139.476 -0.275879 274.776C-0.275879 359.051 41.0616 448.901 127.387 493.038C127.387 493.551 127.237 493.938 127.237 494.501C127.237 531.126 96.7483 581.338 84.7366 602.051H84.7866C83.8366 604.301 83.2616 606.738 83.2616 609.351C83.2616 619.601 91.5241 627.838 101.774 627.838C103.286 627.838 105.749 627.526 106.636 627.526C106.886 627.526 106.974 627.526 106.948 627.6C170.749 617.175 264.962 545.375 278.924 528.363C293.249 530.488 302.924 530.825 314.924 530.825C320.024 530.813 325.45 530.738 331.887 530.738ZM258.349 476.926L226.336 503.513C218.911 512.088 186.648 539.013 158.874 556.488C175.787 508.301 175.049 493.038 175.049 493.038L177.399 462.451L150.149 448.538C80.8741 413.113 49.7366 339.363 49.7366 274.788C49.7366 167.238 173.849 81.3258 326.424 81.3258C478.987 81.3258 599.987 167.238 599.987 274.788C599.511 394.013 486.024 481.526 333.462 481.526C333.462 481.526 310.174 482.426 286.274 478.888L258.349 476.926ZM800.258 476.713C800.258 408.951 773.783 357.275 707.722 318.5C706.109 336.525 700.972 355.863 695.384 372.85C738.084 402.363 750.271 432.663 750.271 476.713C750.271 530.638 725.146 569.752 666.746 599.638L641.871 611.988C641.871 611.988 644.458 676.051 648.296 692.263C599.508 656.501 582.745 626.638 582.745 626.638L556.445 630.688C546.046 632.2 517.921 632.225 517.921 632.225C449.996 632.225 399.658 616.038 356.721 582.425C368.383 581.713 287.045 581.738 285.233 583.326C334.895 643.975 416.071 682.226 517.92 682.226C523.459 682.226 528.146 682.276 532.545 682.276C542.92 682.276 551.295 681.988 563.67 680.176C575.771 694.851 643.534 759.476 698.683 768.463C698.658 768.413 698.733 768.413 698.97 768.413C699.708 768.413 701.845 768.675 703.145 768.675C712.008 768.675 719.158 761.55 719.158 752.688C719.158 750.438 718.645 748.313 717.845 746.388H717.895C707.52 728.513 691.233 676.276 691.233 644.626C691.233 644.138 691.083 643.801 691.083 643.351C765.695 605.201 800.258 549.538 800.258 476.713Z" fill="url(#paint0_linear_5_57)" fill-opacity="0.56"/>
</g>
<path d="M331.517 1027.82L275.973 988.236C273.098 986.187 268.912 987.126 266.629 990.33L255.598 1005.81C254.456 1007.41 254.002 1009.28 254.197 1011.01L257.052 1036.38C257.244 1038.1 258.079 1039.67 259.517 1040.7C259.524 1040.7 259.524 1040.7 259.531 1040.71L287.303 1060.5C287.303 1060.5 287.31 1060.5 287.317 1060.51C288.754 1061.53 290.515 1061.81 292.204 1061.43L317.121 1055.85C318.809 1055.46 320.423 1054.43 321.565 1052.83C321.571 1052.82 321.571 1052.82 321.576 1052.81L332.607 1037.33C334.89 1034.13 334.411 1029.87 331.536 1027.82L331.517 1027.82ZM312.857 1042.98L293.41 1047.34L269.949 1030.62L267.721 1010.82L272.9 1003.55L318.029 1035.71L312.857 1042.98ZM468.634 908.126C473.101 875.003 462.095 842.629 437.072 822.522L436.89 822.381L436.425 822.049C409.416 804.729 375.616 804.416 346.266 818.455L345.82 818.685C329.158 825.614 313.493 837.769 301.613 854.441C301.58 854.487 301.552 854.526 301.519 854.573L301.524 854.565C290.567 872.513 284.445 891.608 282.748 910.473L282.81 909.945C281.997 915.772 281.36 921.632 280.73 927.497C279.911 938.724 278.044 950.966 275.213 963.152L274.807 964.647C274.113 967.339 274.923 970.111 277.069 971.639C277.076 971.644 277.089 971.654 277.096 971.659C277.812 972.169 278.613 972.483 279.441 972.629L279.395 972.62C281.93 973.073 284.703 971.944 286.413 969.545C286.986 968.74 287.386 967.87 287.618 966.972L287.604 967.021C291.055 952.511 293.056 939.536 294.043 926.62L293.939 927.631C294.555 921.92 295.177 916.213 295.967 910.521C297.224 894.331 302.518 877.47 311.968 861.96L312.164 861.656C322.422 847.481 335.814 837.149 350.338 831.09L350.046 831.22C375.676 818.802 404.785 818.911 427.985 833.541L428.15 833.647L428.539 833.924C450.085 851.506 459.407 879.412 455.506 907.466L455.425 907.933C454.188 923.052 448.663 938.768 438.68 952.777C438.349 953.242 438.011 953.701 437.673 954.161L437.723 954.091C425.563 967.88 411.411 978.044 396.268 984.677L396.693 984.478C391.984 986.841 387.205 989.096 382.443 991.327C371.775 995.956 360.337 1001.92 349.25 1008.73L347.801 1009.69C347.05 1010.17 346.329 1010.86 345.739 1011.69C343.455 1014.9 343.935 1019.16 346.81 1021.21C348.927 1022.72 351.757 1022.61 354.014 1021.16L354.056 1021.13C365.919 1013.78 376.755 1008.15 387.819 1003.35L386.878 1003.79C391.749 1001.49 396.637 999.189 401.467 996.773C418.097 989.449 434.06 977.845 447.321 962.541L447.67 962.124C448.187 961.443 448.786 960.632 449.376 959.804C460.887 943.65 467.233 925.532 468.683 907.706L468.638 908.106L468.634 908.126ZM401.371 851.688C401.969 849.057 401.139 846.388 399.042 844.893C398.271 844.344 397.403 844.006 396.506 843.868L396.552 843.878C373.07 842.807 349.079 852.308 331.055 870.8L330.702 871.178C330.456 871.435 330.197 871.74 329.959 872.073C327.913 874.944 328.088 878.652 330.197 880.878L330.219 880.905C330.443 881.135 330.712 881.374 331.018 881.591C331.025 881.596 331.032 881.601 331.032 881.601C333.601 883.432 337.21 882.876 339.581 880.446L339.61 880.42C354.677 865.108 374.107 857.188 392.951 857.51L393.285 857.526C395.766 857.894 398.455 856.764 400.121 854.427C400.739 853.56 401.15 852.616 401.375 851.668L401.361 851.716L401.371 851.688ZM328.751 762.338L345.492 797.609C345.896 798.48 346.535 799.274 347.382 799.877C350.256 801.926 354.442 800.987 356.726 797.783C358.336 795.523 358.572 792.738 357.562 790.571L357.545 790.536L340.804 755.266C340.4 754.394 339.761 753.601 338.914 752.997C336.04 750.949 331.853 751.887 329.57 755.092C327.96 757.352 327.724 760.136 328.734 762.303L328.751 762.338ZM486.242 898.826C487.089 899.43 488.062 899.784 489.057 899.887L489.018 899.882L527.821 904.192C530.238 904.443 532.786 903.306 534.396 901.046C536.68 897.842 536.2 893.579 533.326 891.531C532.479 890.927 531.513 890.578 530.518 890.475L530.557 890.48L491.754 886.17C489.344 885.923 486.796 887.06 485.191 889.313C482.908 892.517 483.38 896.775 486.255 898.824L486.242 898.826ZM424.901 1048.61L408.16 1013.34C407.756 1012.48 407.118 1011.69 406.278 1011.09C403.403 1009.04 399.224 1009.98 396.946 1013.18C395.347 1015.43 395.103 1018.19 396.092 1020.34L396.109 1020.38L412.85 1055.65C413.247 1056.52 413.88 1057.32 414.727 1057.92C414.734 1057.93 414.734 1057.93 414.741 1057.93C417.616 1059.98 421.802 1059.04 424.085 1055.84C425.69 1053.58 425.933 1050.81 424.93 1048.64L424.913 1048.61L424.901 1048.61ZM265.438 911.524L228.177 906.329C225.713 905.997 223.069 907.136 221.42 909.45C219.137 912.654 219.616 916.917 222.491 918.966C223.289 919.534 224.189 919.873 225.124 920.001L225.078 919.992L262.339 925.187C264.817 925.529 267.468 924.395 269.122 922.073C271.406 918.869 270.926 914.606 268.052 912.557C267.239 911.978 266.327 911.643 265.387 911.522L265.438 911.524ZM275.486 842.009L282.429 846.956C285.303 849.005 289.489 848.066 291.773 844.862C294.056 841.657 293.577 837.394 290.702 835.346L283.759 830.399C280.885 828.35 276.699 829.289 274.415 832.493C272.132 835.698 272.612 839.961 275.486 842.009ZM478.164 968.927L471.221 963.98C468.346 961.932 464.16 962.87 461.877 966.074C459.594 969.279 460.073 973.542 462.948 975.59L469.891 980.538C472.765 982.586 476.951 981.647 479.235 978.443C481.518 975.239 481.038 970.976 478.164 968.927Z" fill="url(#paint1_linear_5_57)"/>
<path d="M1326.1 1217.3C1303.25 1159.57 1307.9 1119.09 1340.06 1095.84C1372.22 1072.6 1409.21 1077.79 1451.02 1111.41C1441.14 1048.34 1453.03 1013.98 1486.7 1008.31C1520.37 1002.65 1567.55 1012.16 1628.26 1036.83C1689.08 992.921 1744.69 980.195 1795.1 998.653C1870.7 1026.34 1920.96 1055.78 1915.65 1163.17C1918.33 1185.42 2031.26 1183.89 2052.42 1255.6C2073.57 1327.32 2043.48 1405.25 2011.07 1402.88C1978.65 1400.52 2086.9 1418.47 2027.81 1470.61C2007.12 1488.87 1927.14 1528.33 1879.35 1528.73C1790.63 1529.46 1719.08 1473.07 1682.9 1442.92C1672.42 1417.82 1577.07 1497.26 1488.17 1466.4C1428.89 1445.83 1403.44 1405.24 1411.81 1344.64C1379.16 1361.2 1343.74 1358.64 1305.54 1336.96C1248.23 1304.45 1238.83 1244.45 1285.4 1223.79" stroke="url(#paint2_linear_5_57)" stroke-opacity="0.28" stroke-width="15" stroke-linecap="round" stroke-linejoin="round"/>
<path d="M1564.98 543.631L1627.66 528.977L1638.12 535.318C1662.32 549.964 1690.68 559.2 1722.31 562.13C1826.92 571.821 1908.77 504.016 1917.09 414.189C1925.44 324.033 1857.95 242.724 1752.8 232.983C1647.66 223.242 1566.37 290.768 1558.02 380.924C1555 415.442 1563.26 450.008 1581.55 479.436L1590.42 493.838L1564.98 543.601L1564.98 543.631ZM1540.25 580.271C1537.46 580.928 1534.53 580.772 1531.83 579.821C1529.12 578.87 1526.75 577.165 1524.98 574.907C1523.21 572.649 1522.13 569.932 1521.85 567.077C1521.58 564.222 1522.13 561.348 1523.44 558.796L1555.98 495.204C1534.26 460.231 1524.48 419.158 1528.1 378.152C1537.29 278.989 1626.37 191.091 1755.57 203.06C1884.78 215.03 1956.2 317.798 1947.01 416.961C1937.83 516.124 1847.91 603.945 1719.54 592.053C1682.28 588.601 1649.75 577.5 1622.58 561.039L1540.22 580.269L1540.25 580.271Z" fill="url(#paint3_angular_5_57)" fill-opacity="0.72"/>
<path d="M344.815 969.256C340.479 970.467 336.167 969.249 332.938 966.862C331.092 965.496 330.121 964.447 328.387 962.95C325.915 960.816 323.642 955.309 323.145 953.017C322.171 948.495 323.806 944.555 325.971 940.668C327.846 937.301 330.196 933.97 333.45 931.715C334.792 930.637 336.264 929.905 337.797 929.106C347.819 923.883 357.745 928.173 361.37 931.828C365.131 935.624 367.554 940.102 367.869 945.664C367.954 947.17 367.721 951.868 365.763 954.925C363.541 958.396 361.19 962.18 357.069 963.981C355.383 964.717 353.748 965.894 351.691 965.726" stroke="#08B74F" stroke-opacity="0.28" stroke-width="20" stroke-linecap="round" stroke-linejoin="round"/>
<path d="M266.291 1330.74C258.032 1326.53 248.838 1324.35 239.488 1324.35C166.558 1329.49 166.558 1435.61 239.488 1440.76H412.307C433.344 1440.91 453.603 1433.12 469.03 1418.94C520.299 1374.22 492.873 1284.3 425.397 1275.73C401.087 1129.71 190.245 1185.19 240.267 1324.35" stroke="url(#paint4_linear_5_57)" stroke-opacity="0.24" stroke-width="50" stroke-miterlimit="10" stroke-linecap="round" stroke-linejoin="round"/>
<path d="M399.997 1282.59C408.101 1278.54 416.983 1276.35 426.022 1276.2" stroke="url(#paint5_linear_5_57)" stroke-opacity="0.24" stroke-width="50" stroke-miterlimit="10" stroke-linecap="round" stroke-linejoin="round"/>
<g clip-path="url(#clip1_5_57)">
<path fill-rule="evenodd" clip-rule="evenodd" d="M1351.75 696.958L1291.53 636.74L1020.76 907.51L1080.98 967.729L1351.75 696.958ZM1532.83 636.74L1080.98 1088.59L902.458 910.5L842.24 970.719L1080.98 1209.46L1593.48 696.958L1532.83 636.74ZM600.51 970.719L839.25 1209.46L899.469 1149.24L661.156 910.5L600.51 970.719Z" fill="url(#paint6_linear_5_57)"/>
<path d="M1187.52 514.569C1181.44 516.185 1175.34 514.355 1170.74 510.892C1168.11 508.91 1166.72 507.401 1164.24 505.236C1160.71 502.148 1157.38 494.285 1156.62 491.021C1155.15 484.583 1157.35 479.033 1160.31 473.572C1162.87 468.842 1166.1 464.17 1170.63 461.049C1172.49 459.552 1174.55 458.549 1176.69 457.451C1190.67 450.281 1204.75 456.603 1209.94 461.874C1215.33 467.347 1218.84 473.757 1219.42 481.653C1219.57 483.79 1219.36 490.449 1216.67 494.741C1213.63 499.61 1210.41 504.922 1204.65 507.378C1202.29 508.383 1200.01 510.013 1197.11 509.727" stroke="#08B74F" stroke-opacity="0.28" stroke-width="20" stroke-linecap="round" stroke-linejoin="round"/>
<path d="M966.388 689.264C962.947 690.601 959.789 690.198 957.584 688.84C956.324 688.064 955.696 687.42 954.535 686.537C952.881 685.278 951.742 681.588 951.613 680.001C951.36 676.873 953.035 673.878 955.107 670.865C956.903 668.254 959.058 665.616 961.786 663.651C962.927 662.735 964.129 662.052 965.386 661.314C973.599 656.493 980.706 658.485 983.077 660.706C985.536 663.012 986.899 665.952 986.537 669.895C986.438 670.962 985.75 674.347 983.925 676.747C981.852 679.469 979.649 682.43 976.309 684.165C974.943 684.874 973.567 685.892 972.016 685.996" stroke="#00002F" stroke-opacity="0.09" stroke-width="20" stroke-linecap="round" stroke-linejoin="round"/>
<path d="M921.733 1465.77C904.12 1471.18 886.946 1466.96 874.296 1457.96C867.063 1452.81 863.299 1448.79 856.533 1443.11C846.895 1435 838.519 1413.51 836.848 1404.5C833.564 1386.73 840.694 1370.9 849.942 1355.2C857.953 1341.61 867.879 1328.08 881.285 1318.69C886.832 1314.24 892.856 1311.13 899.133 1307.75C940.174 1285.67 979.491 1301.27 993.563 1315.23C1008.16 1329.74 1017.28 1347.13 1017.77 1369.12C1017.9 1375.06 1016.3 1393.7 1007.99 1406.09C998.568 1420.15 988.583 1435.46 971.756 1443.17C964.871 1446.32 958.128 1451.21 949.878 1450.83" stroke="#08B74F" stroke-opacity="0.28" stroke-width="20" stroke-linecap="round" stroke-linejoin="round"/>
</g>
<path d="M1719.52 877.569C1713.44 879.185 1707.34 877.355 1702.74 873.892C1700.11 871.91 1698.72 870.401 1696.24 868.236C1692.71 865.148 1689.38 857.285 1688.62 854.021C1687.15 847.583 1689.35 842.033 1692.31 836.572C1694.87 831.842 1698.1 827.17 1702.63 824.049C1704.49 822.552 1706.55 821.549 1708.69 820.452C1722.67 813.281 1736.75 819.603 1741.94 824.874C1747.33 830.347 1750.84 836.757 1751.42 844.653C1751.57 846.79 1751.36 853.449 1748.67 857.741C1745.63 862.61 1742.41 867.922 1736.65 870.378C1734.29 871.383 1732.01 873.013 1729.11 872.727" stroke="#08B74F" stroke-opacity="0.28" stroke-width="20" stroke-linecap="round" stroke-linejoin="round"/>
<path d="M1792.9 955.175C1764.33 962.775 1735.65 954.17 1714.02 937.889C1701.65 928.573 1695.09 921.475 1683.45 911.296C1666.85 896.781 1651.19 859.814 1647.65 844.466C1640.7 814.2 1651.08 788.107 1664.97 762.433C1677.01 740.194 1692.2 718.231 1713.49 703.557C1722.25 696.518 1731.91 691.801 1741.97 686.644C1807.72 652.932 1873.9 682.653 1898.31 707.435C1923.63 733.167 1940.16 763.301 1942.87 800.424C1943.6 810.472 1942.58 841.779 1929.96 861.955C1915.63 884.849 1900.5 909.823 1873.42 921.37C1862.34 926.091 1851.65 933.756 1838.01 932.41" stroke="#2F0022" stroke-opacity="0.08" stroke-width="20" stroke-linecap="round" stroke-linejoin="round"/>
<path d="M561.958 1121.7C558.862 1122.44 555.697 1121.39 553.277 1119.51C551.893 1118.44 551.152 1117.63 549.845 1116.46C547.981 1114.8 546.142 1110.65 545.704 1108.93C544.84 1105.56 545.886 1102.7 547.317 1099.9C548.556 1097.48 550.142 1095.1 552.419 1093.54C553.352 1092.79 554.392 1092.3 555.474 1091.77C562.546 1088.26 569.88 1091.78 572.633 1094.61C575.489 1097.54 577.399 1100.94 577.822 1105.06C577.935 1106.18 577.931 1109.64 576.621 1111.84C575.133 1114.33 573.564 1117.04 570.644 1118.23C569.449 1118.71 568.306 1119.53 566.811 1119.33" stroke="#08B74F" stroke-opacity="0.28" stroke-width="20" stroke-linecap="round" stroke-linejoin="round"/>
<path d="M1426.52 433.569C1420.44 435.185 1414.34 433.355 1409.74 429.892C1407.11 427.91 1405.72 426.401 1403.24 424.236C1399.71 421.148 1396.38 413.285 1395.62 410.021C1394.15 403.583 1396.35 398.033 1399.31 392.572C1401.87 387.842 1405.1 383.17 1409.63 380.049C1411.49 378.552 1413.55 377.549 1415.69 376.452C1429.67 369.281 1443.75 375.603 1448.94 380.874C1454.33 386.347 1457.84 392.757 1458.42 400.653C1458.57 402.79 1458.36 409.449 1455.67 413.741C1452.63 418.61 1449.41 423.922 1443.65 426.378C1441.29 427.383 1439.01 429.013 1436.11 428.727" stroke="#08B74F" stroke-opacity="0.28" stroke-width="20" stroke-linecap="round" stroke-linejoin="round"/>
<path d="M938.52 412.569C932.443 414.185 926.342 412.355 921.74 408.892C919.109 406.91 917.715 405.401 915.238 403.236C911.709 400.148 908.376 392.285 907.624 389.021C906.146 382.583 908.354 377.033 911.309 371.572C913.868 366.842 917.1 362.17 921.628 359.049C923.492 357.552 925.547 356.549 927.686 355.452C941.672 348.281 955.747 354.603 960.939 359.874C966.326 365.347 969.843 371.757 970.419 379.653C970.573 381.79 970.357 388.449 967.672 392.741C964.625 397.61 961.405 402.922 955.646 405.378C953.29 406.383 951.015 408.013 948.115 407.727" stroke="#2F0022" stroke-opacity="0.07" stroke-width="20" stroke-linecap="round" stroke-linejoin="round"/>
<defs>
<linearGradient id="paint0_linear_5_57" x1="399.991" y1="31.3133" x2="399.991" y2="768.675" gradientUnits="userSpaceOnUse">
<stop stop-color="#00002F"/>
<stop offset="1" stop-color="#08B74F" stop-opacity="0.26"/>
</linearGradient>
<linearGradient id="paint1_linear_5_57" x1="436.324" y1="821.977" x2="273.413" y2="1050.6" gradientUnits="userSpaceOnUse">
<stop stop-color="#08B74F" stop-opacity="0.16"/>
<stop offset="1" stop-color="#00002F" stop-opacity="0.51"/>
</linearGradient>
<linearGradient id="paint2_linear_5_57" x1="1753.4" y1="986.519" x2="1609.07" y2="1500.58" gradientUnits="userSpaceOnUse">
<stop stop-color="#08B74F" stop-opacity="0.22"/>
<stop offset="1" stop-color="#2F0022"/>
</linearGradient>
<radialGradient id="paint3_angular_5_57" cx="0" cy="0" r="1" gradientUnits="userSpaceOnUse" gradientTransform="translate(1737.3 400.338) rotate(95.2929) scale(198.122 210.354)">
<stop stop-color="#00002F" stop-opacity="0.12"/>
<stop offset="1" stop-color="#08B74F" stop-opacity="0.63"/>
</radialGradient>
<linearGradient id="paint4_linear_5_57" x1="340.2" y1="1189.62" x2="340.2" y2="1440.76" gradientUnits="userSpaceOnUse">
<stop stop-color="#08B74F"/>
<stop offset="1" stop-color="#2F0022"/>
</linearGradient>
<linearGradient id="paint5_linear_5_57" x1="413.01" y1="1276.2" x2="413.01" y2="1282.59" gradientUnits="userSpaceOnUse">
<stop stop-color="#08B74F"/>
<stop offset="1" stop-color="#2F0022"/>
</linearGradient>
<linearGradient id="paint6_linear_5_57" x1="1096.99" y1="636.74" x2="1096.99" y2="1209.46" gradientUnits="userSpaceOnUse">
<stop stop-color="#08B74F" stop-opacity="0.12"/>
<stop offset="1" stop-color="#2F0022" stop-opacity="0.33"/>
</linearGradient>
<clipPath id="clip0_5_57">
<rect width="800" height="800" fill="white"/>
</clipPath>
<clipPath id="clip1_5_57">
<rect width="1025" height="1025" fill="white" transform="translate(583 398)"/>
</clipPath>
</defs>
</svg>
